<?xml version="1.0" encoding="UTF-8" standalone="no"?>
<svg
   xmlns:dc="http://purl.org/dc/elements/1.1/"
   xmlns:cc="http://creativecommons.org/ns#"
   xmlns:rdf="http://www.w3.org/1999/02/22-rdf-syntax-ns#"
   xmlns:svg="http://www.w3.org/2000/svg"
   xmlns="http://www.w3.org/2000/svg"
   viewBox="0 0 853.33331 640"
   height="640"
   width="853.33331"
   xml:space="preserve"
   id="svg2"
   version="1.1"><metadata
     id="metadata8"><rdf:RDF><cc:Work
         rdf:about=""><dc:format>image/svg+xml</dc:format><dc:type
           rdf:resource="http://purl.org/dc/dcmitype/StillImage" /></cc:Work></rdf:RDF></metadata><defs
     id="defs6"><clipPath
       id="clipPath18"
       clipPathUnits="userSpaceOnUse"><path
         id="path16"
         d="M 0,480 H 640 V 0 H 0 Z" /></clipPath></defs><g
     transform="matrix(1.3333333,0,0,-1.3333333,0,640)"
     id="g10"><g
       id="g12"><g
         clip-path="url(#clipPath18)"
         id="g14"><g
           transform="translate(249.3398,364.8784)"
           id="g20"><path
             id="path22"
             style="fill:#2092ce;fill-opacity:1;fill-rule:nonzero;stroke:none"
             d="m 0,0 c -1.034,-0.404 -3.111,-0.54 -2.544,-2.239 0.818,-11.679 1.924,-23.548 5.475,-34.741 12.039,4.855 24.905,7.381 37.79,8.712 16.822,1.753 34.058,0.773 50.35,-3.974 4.154,-1.331 8.379,-2.625 12.174,-4.819 1.691,-0.98 0.908,-3.228 1.033,-4.801 -0.134,-17.929 0.036,-35.857 -0.08,-53.776 -9.135,-0.621 -18.297,-0.774 -27.441,-1.214 -16.786,-0.692 -33.779,-0.728 -50.197,-4.738 -11.581,-2.769 -23.054,-7.4 -32.009,-15.447 -7.84,-6.905 -13.18,-16.373 -15.725,-26.461 -4.568,-17.191 -4.19,-35.919 2.158,-52.598 5.098,-13.361 16.346,-23.818 29.643,-28.798 17.839,-6.86 37.718,-7.076 56.186,-2.787 13.99,3.317 26.875,10.357 38.113,19.214 0.998,0.773 2.041,1.456 3.111,2.122 3.165,-5.458 6.231,-11.212 11.364,-15.123 10.331,-8.021 24.232,-10.197 36.963,-8.515 7.274,0.899 15.07,3.794 18.953,10.439 5.162,8.55 3.516,18.89 3.741,28.384 -8.964,0.162 -17.947,-0.243 -26.902,0.324 -3.048,0.198 -6.284,1.484 -7.876,4.226 -2.158,3.471 -1.888,7.733 -2.058,11.644 0.008,50.943 -0.01,101.895 0.008,152.839 -0.108,3.165 1.115,7.355 -2.122,9.387 -9.89,6.95 -21.299,11.373 -32.88,14.601 C 90.334,6.528 72.72,8.137 55.241,8.029 36.567,7.948 17.982,4.963 0,0 m 49.433,100.323 c 34.391,3.192 69.528,-1.394 101.824,-13.703 48.561,-18.306 90.145,-54.153 115.788,-99.225 21.255,-37.008 31.648,-80.138 29.562,-122.756 -1.528,-35.488 -11.679,-70.554 -29.32,-101.375 -16.723,-29.419 -40.208,-54.935 -68.009,-74.203 -27.917,-19.358 -60.257,-32.305 -93.848,-37.457 -37.709,-5.835 -76.901,-2.077 -112.731,11.113 -40.604,14.808 -76.649,41.692 -102.642,76.2 -22.397,29.544 -37.304,64.7 -42.924,101.338 -4.999,32.26 -3.011,65.581 5.961,96.978 10.709,37.664 31.415,72.451 59.486,99.756 36.477,36.091 85.748,58.829 136.853,63.334" /></g><g
           transform="translate(300.0767,236.9531)"
           id="g24"><path
             id="path26"
             style="fill:#2092ce;fill-opacity:1;fill-rule:nonzero;stroke:none"
             d="m 0,0 c 17.883,0.98 35.785,1.808 53.677,2.589 0.135,-16.237 -0.045,-32.476 0.09,-48.704 -0.055,-2.644 1.033,-6.312 -1.78,-7.931 -14.907,-9.566 -32.53,-14.771 -50.198,-15.464 -9.728,-0.117 -20.625,0.917 -28.016,7.966 -7.238,7.282 -7.858,18.333 -7.714,28.007 0.467,8.668 1.753,18.279 8.343,24.591 C -18.737,-2.59 -9.027,-0.737 0,0" /></g><g
           transform="translate(300.0767,236.9531)"
           id="g28"><path
             id="path30"
             style="fill:#fefeff;fill-opacity:1;fill-rule:nonzero;stroke:none"
             d="m 0,0 c -9.027,-0.737 -18.737,-2.59 -25.598,-8.946 -6.59,-6.312 -7.876,-15.923 -8.343,-24.591 -0.144,-9.674 0.476,-20.725 7.714,-28.007 7.391,-7.049 18.288,-8.083 28.016,-7.966 17.668,0.693 35.291,5.898 50.198,15.464 2.813,1.619 1.725,5.287 1.78,7.931 -0.135,16.228 0.045,32.467 -0.09,48.704 C 35.785,1.808 17.883,0.98 0,0 m -50.737,127.925 c 17.983,4.964 36.567,7.949 55.241,8.03 17.479,0.107 35.093,-1.502 51.987,-6.168 11.581,-3.228 22.99,-7.652 32.881,-14.602 3.236,-2.032 2.013,-6.222 2.122,-9.387 -0.019,-50.944 0,-101.896 -0.009,-152.839 0.17,-3.911 -0.1,-8.173 2.058,-11.644 1.592,-2.742 4.829,-4.028 7.876,-4.226 8.956,-0.567 17.938,-0.161 26.902,-0.323 -0.225,-9.495 1.421,-19.834 -3.74,-28.385 -3.884,-6.645 -11.68,-9.54 -18.954,-10.439 -12.731,-1.681 -26.631,0.495 -36.962,8.515 -5.134,3.911 -8.2,9.665 -11.365,15.123 -1.07,-0.666 -2.113,-1.349 -3.111,-2.122 -11.238,-8.856 -24.123,-15.896 -38.113,-19.214 -18.468,-4.289 -38.347,-4.073 -56.185,2.787 -13.298,4.981 -24.546,15.438 -29.644,28.798 -6.348,16.679 -6.726,35.407 -2.158,52.599 2.545,10.088 7.886,19.555 15.725,26.46 8.956,8.047 20.428,12.678 32.009,15.447 16.418,4.01 33.411,4.046 50.197,4.738 9.145,0.441 18.306,0.594 27.441,1.214 0.117,17.92 -0.054,35.848 0.081,53.776 -0.125,1.573 0.657,3.821 -1.034,4.801 -3.795,2.194 -8.02,3.489 -12.174,4.819 -16.292,4.748 -33.528,5.728 -50.35,3.974 -12.884,-1.33 -25.751,-3.857 -37.79,-8.712 -3.551,11.194 -4.657,23.062 -5.475,34.742 -0.567,1.699 1.51,1.834 2.544,2.238" /></g></g></g></g></svg>