<svg xmlns="http://www.w3.org/2000/svg" viewBox="0 0 301.39 155.32"><title>PSP-1Color-Black</title><g id="Layer_2" data-name="Layer 2"><g id="Layer_1-2" data-name="Layer 1"><path d="M36.32,47.32h38.5q10.83,0,16.36,3.17a15.48,15.48,0,0,1,7.36,8.95q1.83,5.78,1.83,15.43A53.35,53.35,0,0,1,98.66,89.7a15.79,15.79,0,0,1-7.3,9.18q-5.6,3.42-16.54,3.42h-18v26H36.32Zm30,38.61a36.78,36.78,0,0,0,9-.76,4.89,4.89,0,0,0,3.53-2.94,23,23,0,0,0,.83-7.36,22.94,22.94,0,0,0-.83-7.36,4.9,4.9,0,0,0-3.47-3,36.69,36.69,0,0,0-9-.76H56.8V85.93Z"/><path d="M110.45,127.17v-16q14.37,1.42,24.26,1.42a62.93,62.93,0,0,0,8.83-.47,9.23,9.23,0,0,0,4.35-1.54,4,4,0,0,0,1.48-2.29,19.62,19.62,0,0,0,.29-3.83,13.77,13.77,0,0,0-.47-4.24,3,3,0,0,0-1.89-1.82,25.5,25.5,0,0,0-4.94-1l-15-1.89q-8-.93-12.19-4.06a15.25,15.25,0,0,1-5.65-8.06A44.11,44.11,0,0,1,108.1,71q0-10.49,3.88-15.9A18.08,18.08,0,0,1,122.4,48a67.41,67.41,0,0,1,16.66-1.71q7.42,0,13.6.59t13.48,1.88V64.41a219.76,219.76,0,0,0-23-1.53q-9.42,0-12.24,1.41a3.35,3.35,0,0,0-1.94,2,12.36,12.36,0,0,0-.42,3.65,14.53,14.53,0,0,0,.42,4.18,2.8,2.8,0,0,0,1.76,1.76,23.58,23.58,0,0,0,4.77,1L152.72,79a28.84,28.84,0,0,1,8.54,2.12,12.86,12.86,0,0,1,5.59,5.18q3.41,5.07,3.41,16.13,0,11.53-3.65,17.37a16.81,16.81,0,0,1-9.77,7.59A58.7,58.7,0,0,1,141,129.17,207.58,207.58,0,0,1,110.45,127.17Z"/><path d="M179,47.32h38.5q10.83,0,16.36,3.17a15.48,15.48,0,0,1,7.36,8.95Q243,65.22,243,74.87a53.77,53.77,0,0,1-1.7,14.83,15.83,15.83,0,0,1-7.3,9.18q-5.59,3.42-16.54,3.42h-18v26H179Zm30,38.61a36.78,36.78,0,0,0,9-.76,4.89,4.89,0,0,0,3.53-2.94,23.09,23.09,0,0,0,.82-7.36,23,23,0,0,0-.82-7.36,4.9,4.9,0,0,0-3.47-3,36.69,36.69,0,0,0-9-.76h-9.54V85.93Z"/><path d="M169.64,64.41v3.9l-3.88-.42c-2.41-.26-4.7-.49-6.89-.68q-7.19,3.6-14.34,7.26l8.59,1.06A31.57,31.57,0,0,1,162.71,78a16.24,16.24,0,0,1,7.08,6.47l0,0,5.65-2.65V58.94l-5.82,2.87Z"/><path d="M274.93,11.91q-34.47,15.53-68.54,31.91h11.07c7.91,0,13.83,1.19,18.1,3.64a20.9,20.9,0,0,1,4.28,3.23q9.18-4.57,18.34-9.22l-4.29,8.81L246.11,66.6a79.86,79.86,0,0,1,.39,8.27,57,57,0,0,1-1.85,15.82,19.22,19.22,0,0,1-8.83,11.18,24.39,24.39,0,0,1-7.26,2.82q-3.41,7.57-6.73,15.19c-5.13,11.71-10.11,23.51-14.83,35.44,7.28-10.57,14.3-21.28,21.17-32.06s13.6-21.65,20.28-32.54l9.9-16.39,9.76-16.47,9.62-16.54,9.51-16.61L301.39,0Z"/><path d="M113.13,94.24a19.67,19.67,0,0,1-2.45-2.17q-6.23,3.29-12.41,6.62v0l-1.39.75-1.12.6,0,0-7.33,4,0,0-1.61.88-1.09.59h0q-9.39,5.1-18.72,10.28c-2.22,1.23-4.43,2.48-6.65,3.73v12.32H38.76L33.23,135C22.05,141.59,11,148.31,0,155.32c12.29-4.24,24.45-8.78,36.52-13.48,6-2.32,12-4.75,18.07-7.13s12-4.85,18-7.35q17.28-7.15,34.4-14.61v-5.46l3.85.38c2.22.22,4.35.41,6.42.58q9.23-4.06,18.42-8.19L127,99C121,98.26,116.45,96.72,113.13,94.24Z"/><path d="M110.45,111.22l.13,0-.13,0Z"/></g></g></svg>